<svg width="151" height="110" viewBox="0 0 151 110" fill="none" xmlns="http://www.w3.org/2000/svg">
<path d="M0.43056 50.6546L36.7501 50.3683C36.3541 76.1994 28.8721 79.1903 19.4501 80.1014L15.8177 80.5698L16.065 108.968L20.2544 108.716C32.5615 107.943 46.1557 105.67 55.1426 94.6592C63.0204 85.0068 66.3939 69.3122 66.1844 45.2621L65.7963 0.697014L0 1.21582L0.43056 50.6546Z" fill="#F4F5FD"/>
<path d="M83.9705 0.538086L84.401 49.9767L120.236 49.6941C119.84 75.5252 112.601 78.5141 103.179 79.4252L99.7882 79.8917L100.036 108.29L103.983 108.04C116.29 107.267 130.006 104.993 138.993 93.982C146.87 84.3297 150.364 68.6342 150.155 44.5841L149.767 0.0192822L83.9705 0.538086Z" fill="#F4F5FD"/>
</svg>
