<svg width="20" height="20" viewBox="0 0 20 20" fill="none" xmlns="http://www.w3.org/2000/svg">
<g clip-path="url(#clip0)">
<path d="M20 12.3026C20 11.2482 19.1421 10.3903 18.0877 10.3903H2.35007V2.57462C2.35007 1.80168 2.97892 1.17287 3.75186 1.17287H5.03655C5.25356 1.17287 5.46058 1.26603 5.60455 1.4284L6.19211 2.09123C6.15696 2.26203 6.13845 2.43889 6.13845 2.61993V3.3885C5.91104 3.469 5.74785 3.68534 5.74785 3.94032C5.74785 4.26389 6.01018 4.52621 6.33374 4.52621H11.1808C11.5044 4.52621 11.7667 4.26389 11.7667 3.94032C11.7667 3.68534 11.6035 3.469 11.3761 3.3885V2.61993C11.3761 1.17588 10.2013 0.00109863 8.75728 0.00109863C7.94872 0.00109863 7.22472 0.369582 6.74394 0.947304L6.48138 0.651159C6.11517 0.237992 5.58857 0.00109863 5.03651 0.00109863H3.75186C2.3328 0.00109863 1.17829 1.15557 1.17829 2.57462V10.4685C1.17829 10.4912 1.1799 10.5134 1.1824 10.5354C0.489059 10.8228 0 11.5066 0 12.3026C0 13.0971 0.487145 13.7798 1.17829 14.0682V15.1271C1.17829 17.2242 2.88443 18.9304 4.98155 18.9304H5.31641V19.4135C5.31641 19.737 5.57873 19.9993 5.90229 19.9993C6.22586 19.9993 6.48818 19.737 6.48818 19.4135V18.9304H13.5118V19.4135C13.5118 19.737 13.7741 19.9993 14.0977 19.9993C14.4212 19.9993 14.6836 19.737 14.6836 19.4135V18.9304H15.0184C17.1155 18.9304 18.8217 17.2242 18.8217 15.1271V14.0682C19.5129 13.7798 20 13.0971 20 12.3026ZM8.75724 1.17283C9.55518 1.17283 10.2043 1.82199 10.2043 2.61989V3.3544H7.31018V2.61993C7.31018 1.82199 7.9593 1.17283 8.75724 1.17283ZM15.0184 17.7586H4.98155C3.53055 17.7586 2.35007 16.5781 2.35007 15.1271V14.2149H17.6499V15.1271C17.6499 16.5781 16.4695 17.7586 15.0184 17.7586ZM18.0877 13.0432H1.91229C1.50397 13.0432 1.17177 12.711 1.17177 12.3026C1.17177 11.8943 1.50397 11.5621 1.91229 11.5621H18.0877C18.496 11.5621 18.8282 11.8943 18.8282 12.3026C18.8282 12.711 18.496 13.0432 18.0877 13.0432Z" fill="#1E1D40"/>
<path d="M11.5945 8.52277C11.5446 8.28228 11.3497 8.0948 11.1062 8.05777C10.8646 8.02105 10.6184 8.14561 10.5036 8.36106C10.3887 8.57675 10.4214 8.84926 10.586 9.03054C10.7504 9.21146 11.0183 9.27216 11.2442 9.17818C11.4976 9.07276 11.6506 8.79321 11.5945 8.52277Z" fill="#1E1D40"/>
<path d="M9.25196 8.52277C9.20204 8.28224 9.00722 8.0948 8.76368 8.05777C8.52211 8.02105 8.27588 8.14565 8.16108 8.36106C8.04613 8.57675 8.07886 8.84926 8.2435 9.03053C8.4079 9.21153 8.67572 9.27239 8.90164 9.17818C9.15502 9.07256 9.30817 8.79345 9.25196 8.52277Z" fill="#1E1D40"/>
<path d="M6.90797 8.52277C6.85805 8.28232 6.66311 8.09476 6.41969 8.05777C6.17807 8.02105 5.93188 8.14561 5.81709 8.36106C5.70214 8.57675 5.73487 8.84926 5.8995 9.03054C6.06379 9.21142 6.33181 9.27215 6.55765 9.17818C6.81103 9.0728 6.9641 8.79313 6.90797 8.52277Z" fill="#1E1D40"/>
<path d="M11.6028 6.23589C11.5775 5.99212 11.4002 5.78542 11.1622 5.72558C10.9254 5.66602 10.6679 5.76449 10.5327 5.96833C10.3977 6.17168 10.4029 6.44615 10.5492 6.64238C10.6956 6.83877 10.9554 6.9252 11.19 6.85377C11.4536 6.77362 11.6308 6.51087 11.6028 6.23589Z" fill="#1E1D40"/>
<path d="M9.26171 6.23582C9.2364 5.99206 9.05908 5.7854 8.82109 5.72552C8.58408 5.66591 8.32711 5.76462 8.19154 5.96827C8.05593 6.17196 8.06264 6.44553 8.2081 6.64227C8.35344 6.83885 8.61502 6.92529 8.8489 6.85413C9.11235 6.77398 9.28964 6.51037 9.26171 6.23582Z" fill="#1E1D40"/>
<path d="M6.91695 6.23589C6.89168 5.9922 6.71424 5.78542 6.47633 5.72558C6.23955 5.66602 5.98204 5.76449 5.84678 5.96833C5.71144 6.1723 5.71769 6.44536 5.86334 6.64234C6.00868 6.83892 6.27025 6.92536 6.50414 6.85419C6.76755 6.77408 6.94484 6.51028 6.91695 6.23589Z" fill="#1E1D40"/>
</g>
<defs>
<clipPath id="clip0">
<rect width="20" height="20" fill="white"/>
</clipPath>
</defs>
</svg>
