<svg width="20" height="20" viewBox="0 0 20 20" fill="none" xmlns="http://www.w3.org/2000/svg">
<g clip-path="url(#clip0)">
<path d="M19.0236 10.0262V9.64527C19.0236 8.94359 18.6604 8.32551 18.1123 7.96808V3.81308C18.1123 2.71988 17.2229 1.83051 16.1297 1.83051H3.87027C2.77707 1.83051 1.88766 2.71988 1.88766 3.81308V7.96804C1.33961 8.32547 0.976328 8.94355 0.976328 9.64523V10.0261C0.415156 10.1739 0 10.6856 0 11.2926V15.7495C0 16.4506 0.553984 17.0247 1.24723 17.0573V17.5848C1.24723 17.9078 1.50906 18.1696 1.83203 18.1696C2.155 18.1696 2.41684 17.9078 2.41684 17.5848V17.0589H17.5831V17.5848C17.5831 17.9078 17.845 18.1696 18.1679 18.1696C18.4909 18.1696 18.7527 17.9078 18.7527 17.5848V17.0573C19.446 17.0247 20 16.4506 20 15.7494V11.2926C20 10.6856 19.5848 10.1739 19.0236 10.0262ZM3.0573 3.81308C3.0573 3.3648 3.42199 3.00011 3.87027 3.00011H16.1297C16.578 3.00011 16.9427 3.3648 16.9427 3.81308V7.64383H16.1629V6.61304C16.1629 5.89156 15.576 5.30457 14.8545 5.30457H11.7077C10.9862 5.30457 10.3992 5.89156 10.3992 6.61304V7.64383H9.60082V6.61304C9.60082 5.89156 9.01383 5.30457 8.29234 5.30457H5.14555C4.42402 5.30457 3.83707 5.89156 3.83707 6.61304V7.64383H3.0573V3.81308ZM14.9933 6.61301V7.50496C14.9933 7.58152 14.931 7.64379 14.8545 7.64379H11.7077C11.6311 7.64379 11.5688 7.58148 11.5688 7.50496V6.61301C11.5688 6.53644 11.6311 6.47418 11.7077 6.47418H14.8545C14.931 6.47418 14.9933 6.53644 14.9933 6.61301ZM8.43117 6.61301V7.50496C8.43117 7.58152 8.36887 7.64379 8.29234 7.64379H5.14555C5.06898 7.64379 5.00672 7.58148 5.00672 7.50496V6.61301C5.00672 6.53644 5.06902 6.47418 5.14555 6.47418H8.29234C8.36887 6.47418 8.43117 6.53644 8.43117 6.61301ZM2.14598 9.64523C2.14598 9.18656 2.51914 8.81344 2.97781 8.81344H17.0222C17.4809 8.81344 17.854 9.1866 17.854 9.64523V9.98304H2.14598V9.64523ZM18.8304 15.7494C18.8304 15.8265 18.7676 15.8893 18.6905 15.8893H1.30949C1.23238 15.8893 1.16961 15.8265 1.16961 15.7494V11.2926C1.16961 11.2155 1.23234 11.1527 1.30949 11.1527H18.6905C18.7676 11.1527 18.8304 11.2155 18.8304 11.2926V15.7494H18.8304Z" fill="#1E1D40"/>
</g>
<defs>
<clipPath id="clip0">
<rect width="20" height="20" fill="white"/>
</clipPath>
</defs>
</svg>
