<svg width="71" height="24" viewBox="0 0 71 24" fill="none" xmlns="http://www.w3.org/2000/svg">
<g clip-path="url(#clip0)">
<path d="M23.5969 10.729L12.8289 0.917277C12.3563 0.486543 11.6435 0.48659 11.1711 0.91723L0.403033 10.7291C0.0244239 11.0741 -0.100638 11.6056 0.08433 12.0833C0.269345 12.5609 0.719813 12.8694 1.23202 12.8694H2.95186V22.7001C2.95186 23.0899 3.26789 23.4059 3.65765 23.4059H9.55986C9.94963 23.4059 10.2657 23.0899 10.2657 22.7001V16.7312H13.7345V22.7001C13.7345 23.0899 14.0505 23.4059 14.4403 23.4059H20.3422C20.732 23.4059 21.048 23.09 21.048 22.7001V12.8694H22.7682C23.2803 12.8694 23.7308 12.5608 23.9159 12.0833C24.1006 11.6056 23.9755 11.0741 23.5969 10.729Z" fill="#05148A"/>
<path d="M20.8637 2.00293H16.1238L21.5695 6.95461V2.70868C21.5695 2.31891 21.2535 2.00293 20.8637 2.00293Z" fill="#05148A"/>
</g>
<path d="M38.8047 17H37.4854V12.3994H32.4678V17H31.1553V7.04688H32.4678V11.3262H37.4854V7.04688H38.8047V17ZM40.6025 13.2334C40.6025 12.5088 40.7438 11.8571 41.0264 11.2783C41.3135 10.6995 41.71 10.2529 42.2158 9.93848C42.7262 9.62402 43.3073 9.4668 43.959 9.4668C44.9661 9.4668 45.7796 9.81543 46.3994 10.5127C47.0238 11.21 47.3359 12.1374 47.3359 13.2949V13.3838C47.3359 14.1038 47.1969 14.751 46.9189 15.3252C46.6455 15.8949 46.2513 16.3392 45.7363 16.6582C45.2259 16.9772 44.638 17.1367 43.9727 17.1367C42.9701 17.1367 42.1566 16.7881 41.5322 16.0908C40.9124 15.3936 40.6025 14.4707 40.6025 13.3223V13.2334ZM41.874 13.3838C41.874 14.2041 42.0632 14.8626 42.4414 15.3594C42.8242 15.8561 43.3346 16.1045 43.9727 16.1045C44.6152 16.1045 45.1257 15.8538 45.5039 15.3525C45.8822 14.8467 46.0713 14.1403 46.0713 13.2334C46.0713 12.4222 45.8776 11.766 45.4902 11.2646C45.1074 10.7588 44.597 10.5059 43.959 10.5059C43.3346 10.5059 42.8311 10.7542 42.4482 11.251C42.0654 11.7477 41.874 12.4587 41.874 13.3838ZM53.4883 16.2686C52.9961 16.8473 52.2738 17.1367 51.3213 17.1367C50.5329 17.1367 49.9313 16.9089 49.5166 16.4531C49.1064 15.9928 48.8991 15.3138 48.8945 14.416V9.60352H50.1592V14.3818C50.1592 15.5029 50.6149 16.0635 51.5264 16.0635C52.4925 16.0635 53.1351 15.7035 53.4541 14.9834V9.60352H54.7188V17H53.5156L53.4883 16.2686ZM60.9531 15.0381C60.9531 14.6963 60.8232 14.432 60.5635 14.2451C60.3083 14.0537 59.8594 13.8896 59.2168 13.7529C58.5788 13.6162 58.0706 13.4521 57.6924 13.2607C57.3187 13.0693 57.0407 12.8415 56.8584 12.5771C56.6807 12.3128 56.5918 11.9984 56.5918 11.6338C56.5918 11.0277 56.847 10.515 57.3574 10.0957C57.8724 9.67643 58.5286 9.4668 59.3262 9.4668C60.1647 9.4668 60.8438 9.68327 61.3633 10.1162C61.8874 10.5492 62.1494 11.1029 62.1494 11.7773H60.8779C60.8779 11.431 60.7298 11.1325 60.4336 10.8818C60.1419 10.6312 59.7728 10.5059 59.3262 10.5059C58.8659 10.5059 58.5059 10.6061 58.2461 10.8066C57.9863 11.0072 57.8564 11.2692 57.8564 11.5928C57.8564 11.8981 57.9772 12.1283 58.2188 12.2832C58.4603 12.4382 58.8955 12.5863 59.5244 12.7275C60.1579 12.8688 60.6706 13.0374 61.0625 13.2334C61.4544 13.4294 61.7438 13.6663 61.9307 13.9443C62.1221 14.2178 62.2178 14.5527 62.2178 14.9492C62.2178 15.61 61.9535 16.141 61.4248 16.542C60.8962 16.9385 60.2103 17.1367 59.3672 17.1367C58.7747 17.1367 58.2507 17.0319 57.7949 16.8223C57.3392 16.6126 56.9814 16.321 56.7217 15.9473C56.4665 15.569 56.3389 15.1611 56.3389 14.7236H57.6035C57.6263 15.1475 57.7949 15.4847 58.1094 15.7354C58.4284 15.9814 58.8477 16.1045 59.3672 16.1045C59.8457 16.1045 60.2285 16.0088 60.5156 15.8174C60.8073 15.6214 60.9531 15.3617 60.9531 15.0381ZM66.9346 17.1367C65.932 17.1367 65.1162 16.8086 64.4873 16.1523C63.8584 15.4915 63.5439 14.6097 63.5439 13.5068V13.2744C63.5439 12.5407 63.6829 11.8867 63.9609 11.3125C64.2435 10.7337 64.6354 10.2826 65.1367 9.95898C65.6426 9.63086 66.1895 9.4668 66.7773 9.4668C67.7389 9.4668 68.4863 9.78353 69.0195 10.417C69.5527 11.0505 69.8193 11.9574 69.8193 13.1377V13.6641H64.8086C64.8268 14.3932 65.0387 14.9834 65.4443 15.4346C65.8545 15.8812 66.374 16.1045 67.0029 16.1045C67.4495 16.1045 67.8278 16.0133 68.1377 15.8311C68.4476 15.6488 68.7188 15.4072 68.9512 15.1064L69.7236 15.708C69.1038 16.6605 68.1742 17.1367 66.9346 17.1367ZM66.7773 10.5059C66.2669 10.5059 65.8385 10.6927 65.4922 11.0664C65.1458 11.4355 64.9316 11.9551 64.8496 12.625H68.5547V12.5293C68.5182 11.8867 68.3451 11.39 68.0352 11.0391C67.7253 10.6836 67.306 10.5059 66.7773 10.5059Z" fill="#1E1D40"/>
<defs>
<clipPath id="clip0">
<rect width="24" height="24" fill="white"/>
</clipPath>
</defs>
</svg>
