<svg width="96" height="96" viewBox="0 0 96 96" fill="none" xmlns="http://www.w3.org/2000/svg">
<path d="M96 50.9548H72.7156C73.1137 33.9852 77.9268 32.0589 83.9719 31.509L86.303 31.2201V12.5602L83.616 12.7042C75.7222 13.1483 66.9949 14.5713 61.1724 21.7592C56.0684 28.0603 53.8182 38.3546 53.8182 54.1573V83.4397H96V50.9548Z" fill="#F3F2F2"/>
<path d="M42.186 83.4397V50.9548H19.2125C19.6105 33.9852 24.268 32.0589 30.3131 31.509L32.4891 31.2201V12.5602L29.9572 12.7042C22.0634 13.1483 13.258 14.5713 7.43549 21.7592C2.33198 28.0603 0.00422668 38.3546 0.00422668 54.1573V83.4397H42.186Z" fill="#F3F2F2"/>
</svg>
