<svg width="40" height="40" viewBox="0 0 40 40" fill="none" xmlns="http://www.w3.org/2000/svg">
<g clip-path="url(#clip0)">
<path d="M39.5117 37.155L35.2783 32.9217C36.1517 31.6033 36.6667 30.0283 36.6667 28.3333C36.6667 23.7383 32.9283 20 28.3333 20C23.7383 20 20 23.7383 20 28.3333C20 32.9283 23.7383 36.6667 28.3333 36.6667C30.0283 36.6667 31.6033 36.1517 32.9217 35.2783L37.155 39.5117C37.8067 40.1633 38.86 40.1633 39.5117 39.5117C40.1633 38.86 40.1633 37.8067 39.5117 37.155ZM28.3333 33.3333C25.5767 33.3333 23.3333 31.09 23.3333 28.3333C23.3333 25.5767 25.5767 23.3333 28.3333 23.3333C31.09 23.3333 33.3333 25.5767 33.3333 28.3333C33.3333 31.09 31.09 33.3333 28.3333 33.3333Z" fill="#041389"/>
<path d="M34.2483 15.7133L28.3333 9.93V3.33333C28.3333 2.41333 27.5883 1.66667 26.6667 1.66667C25.745 1.66667 25 2.41333 25 3.33333V6.67L18.665 0.475C18.0167 -0.158333 16.9817 -0.158333 16.335 0.475L0.751667 15.7133C0.266667 16.1867 0 16.8217 0 17.5C0 18.8783 1.12167 20 2.5 20H5V29.1667C5 31.4633 6.86833 33.3333 9.16667 33.3333H15C15.9217 33.3333 16.6667 32.5867 16.6667 31.6667C16.6667 30.7467 15.9217 30 15 30H9.16667C8.70833 30 8.33333 29.6267 8.33333 29.1667V18.3333C8.33333 17.4133 7.58833 16.6667 6.66667 16.6667H4.545L17.5 3.99667L31.9167 18.095C32.5767 18.7417 33.6333 18.7267 34.2733 18.0683C34.9183 17.4117 34.905 16.3567 34.2483 15.7133Z" fill="#041389"/>
</g>
<defs>
<clipPath id="clip0">
<rect width="40" height="40" fill="white"/>
</clipPath>
</defs>
</svg>
