<svg width="40" height="40" viewBox="0 0 40 40" fill="none" xmlns="http://www.w3.org/2000/svg">
<g clip-path="url(#clip0)">
<path d="M34.2971 6.77215C26.9134 6.77215 21.2585 0.622552 21.1633 0.517876C20.545 -0.17121 19.461 -0.173957 18.8381 0.517266C18.7817 0.579522 13.1127 6.77215 5.70337 6.77215C4.84033 6.77215 4.14087 7.47161 4.14087 8.33465C4.14087 22.0676 6.91064 33.949 19.3298 39.8489C19.754 40.0503 20.2465 40.0503 20.6707 39.8489C33.1179 33.9355 35.8596 22.0132 35.8596 8.33465C35.8596 7.47161 35.1602 6.77215 34.2971 6.77215ZM20.0002 36.6955C9.82263 31.4883 7.43127 21.3473 7.27533 9.8236C13.2641 9.26421 17.9275 5.65551 20.0002 3.75732C22.073 5.65551 26.7367 9.26421 32.7252 9.8236C32.5692 21.3498 30.1766 31.4889 20.0002 36.6955ZM18.3956 21.5219L24.7549 15.1627C25.3649 14.5526 26.3543 14.5523 26.9644 15.1627C27.5747 15.773 27.5747 16.7621 26.9647 17.3724L19.5007 24.8364C18.8906 25.4465 17.9009 25.4462 17.2909 24.8364L13.0361 20.5817C12.4258 19.9713 12.4258 18.9819 13.0361 18.3719C13.6462 17.7615 14.6356 17.7615 15.2459 18.3719L18.3956 21.5219Z" fill="#041389"/>
</g>
<defs>
<clipPath id="clip0">
<rect width="40" height="40" fill="white"/>
</clipPath>
</defs>
</svg>
