<svg width="40" height="40" viewBox="0 0 40 40" fill="none" xmlns="http://www.w3.org/2000/svg">
<path d="M35.3125 9.375C37.8973 9.375 40 7.27234 40 4.6875C40 2.10266 37.8973 0 35.3125 0C32.7277 0 30.625 2.10266 30.625 4.6875C30.625 7.27234 32.7277 9.375 35.3125 9.375ZM35.3125 3.125C36.174 3.125 36.875 3.82599 36.875 4.6875C36.875 5.54901 36.174 6.25 35.3125 6.25C34.451 6.25 33.75 5.54901 33.75 4.6875C33.75 3.82599 34.451 3.125 35.3125 3.125ZM4.6875 9.375C7.27234 9.375 9.375 7.27234 9.375 4.6875C9.375 2.10266 7.27234 0 4.6875 0C2.10266 0 0 2.10266 0 4.6875C0 7.27234 2.10266 9.375 4.6875 9.375ZM4.6875 3.125C5.54901 3.125 6.25 3.82599 6.25 4.6875C6.25 5.54901 5.54901 6.25 4.6875 6.25C3.82599 6.25 3.125 5.54901 3.125 4.6875C3.125 3.82599 3.82599 3.125 4.6875 3.125ZM35.3369 10.8594C35.3293 10.8594 35.3217 10.8594 35.314 10.8594C32.0798 10.8594 30.8536 13.2141 30.0809 15.5191C29.8181 16.3031 29.2477 18.0161 28.8733 19.1406H27.0312V15.5469C27.0312 12.962 24.9286 10.8594 22.3438 10.8594H17.6562C15.0714 10.8594 12.9688 12.962 12.9688 15.5469V19.1406H11.1267C10.7523 18.0161 10.1819 16.3031 9.91913 15.5191C9.14612 13.2141 7.92053 10.8594 4.68597 10.8594C4.67834 10.8594 4.67041 10.8594 4.66278 10.8594C2.09167 10.8682 0 12.9712 0 15.5469V24.0625C0 26.0995 1.30646 27.8363 3.125 28.4811V28.5156C3.16528 28.5156 3.20465 28.5187 3.24432 28.5217C3.41827 28.5782 3.5965 28.6249 3.77869 28.6609C4.31427 28.9087 4.6875 29.4501 4.6875 30.0781V40H7.8125V30.0781C7.8125 29.617 7.74445 29.1714 7.61963 28.75H9.45312C10.3146 28.75 11.0156 29.451 11.0156 30.3125V40H14.1406V30.3125C14.1406 27.7277 12.038 25.625 9.45312 25.625H4.6875C4.64722 25.625 4.60785 25.6219 4.56818 25.6189C4.39423 25.5624 4.216 25.5157 4.03381 25.4797C3.49823 25.2319 3.125 24.6906 3.125 24.0625V15.5469C3.125 14.6884 3.81989 13.9874 4.67377 13.9844C5.37994 13.9819 6.10687 13.9795 6.95587 16.5121C7.36176 17.7228 8.50586 21.1618 8.51746 21.1963L8.87299 22.2656H31.127L31.4825 21.1963C31.4941 21.1618 32.6382 17.7228 33.0441 16.5121C33.8928 13.9795 34.6201 13.9828 35.3262 13.9844C36.1801 13.9874 36.875 14.6884 36.875 15.5469V24.0625C36.875 24.6906 36.5018 25.2319 35.9662 25.4797C35.784 25.5157 35.6058 25.5624 35.4318 25.6189C35.3922 25.6219 35.3528 25.625 35.3125 25.625H30.625C28.0402 25.625 25.9375 27.7277 25.9375 30.3125V40H29.0625V30.3125C29.0625 29.451 29.7635 28.75 30.625 28.75H32.3804C32.2556 29.1714 32.1875 29.617 32.1875 30.0781V40H35.3125V30.0781C35.3125 29.4501 35.6857 28.9087 36.2213 28.6609C36.4035 28.6249 36.5817 28.5782 36.7557 28.5217C36.7953 28.5187 36.8347 28.5156 36.875 28.5156V28.4811C38.6935 27.8363 40 26.0995 40 24.0625V15.5469C40 12.9712 37.9083 10.8682 35.3369 10.8594ZM16.0938 15.5469C16.0938 14.6854 16.7947 13.9844 17.6562 13.9844H22.3438C23.2053 13.9844 23.9062 14.6854 23.9062 15.5469V19.1406H16.0938V15.5469ZM20 9.375C22.5848 9.375 24.6875 7.27234 24.6875 4.6875C24.6875 2.10266 22.5848 0 20 0C17.4152 0 15.3125 2.10266 15.3125 4.6875C15.3125 7.27234 17.4152 9.375 20 9.375ZM20 3.125C20.8615 3.125 21.5625 3.82599 21.5625 4.6875C21.5625 5.54901 20.8615 6.25 20 6.25C19.1385 6.25 18.4375 5.54901 18.4375 4.6875C18.4375 3.82599 19.1385 3.125 20 3.125Z" fill="#041389"/>
</svg>
