<svg width="72" height="72" viewBox="0 0 72 72" fill="none" xmlns="http://www.w3.org/2000/svg">
<path d="M72 28.8975V1.45496H61.2692L49.2884 13.4358C44.5213 13.347 39.727 15.0379 36 18.5088C32.2723 15.0353 27.4763 13.3433 22.7077 13.432L10.7307 1.45496H0V28.8975L4.09894 32.9964C4.24322 37.6584 6.08948 42.2771 9.63998 45.8278L34.3574 70.5451L40.3237 64.579L42.3125 66.5677L48.2787 60.6015L50.2675 62.5904L56.2337 56.6241L58.2225 58.6128L67.1719 49.6636L62.8394 45.3311C66.0752 41.8524 67.7614 37.4455 67.8988 32.9991L72 28.8975ZM63.0166 5.67371H67.7812V27.1501L67.3012 27.6302C66.4823 24.4601 64.8342 21.4617 62.3561 18.9837C60.0706 16.6983 57.3424 15.1193 54.4452 14.2451L63.0166 5.67371ZM4.21875 5.67371H8.98341L17.551 14.2413C14.6537 15.1155 11.9256 16.6945 9.64013 18.9801C7.16189 21.4583 5.51489 24.457 4.69603 27.6274L4.21875 27.1501V5.67371ZM58.2223 52.6465L56.3991 50.8233L41.7887 36.213L38.8056 39.196L53.2505 53.6409L50.2674 56.624L48.2785 54.6351L35.8224 42.1791L32.8393 45.1622L45.2955 57.6183L42.3124 60.6014L40.4381 58.7273L29.8562 48.1454L26.8732 51.1285L37.3404 61.5959L34.3572 64.579L12.6232 42.8447C6.8663 37.0876 6.8663 27.72 12.6232 21.9629C15.5022 19.084 19.2825 17.6451 23.0642 17.6451C26.6297 17.6451 30.1973 18.9261 33.0057 21.486L24.5285 29.9633L29.0031 34.4378C30.2368 35.6717 31.857 36.2886 33.4777 36.2883C35.0979 36.2882 36.7189 35.6714 37.9523 34.4378L41.9662 30.4241L61.2055 49.6633L58.2223 52.6465ZM59.8535 42.3452L41.9663 24.4581L34.9694 31.4549C34.571 31.8533 34.0411 32.0728 33.4777 32.0728C32.9144 32.0728 32.3847 31.8533 31.9863 31.4549L30.4948 29.9634L38.4915 21.9667C44.2486 16.2096 53.6164 16.2098 59.3733 21.9667C64.9654 27.559 65.1255 36.5579 59.8535 42.3452V42.3452Z" fill="#04159A"/>
</svg>
