<svg width="72" height="72" viewBox="0 0 72 72" fill="none" xmlns="http://www.w3.org/2000/svg">
<g clip-path="url(#clip0)">
<path d="M66.5909 37.6234C65.7962 37.6234 65.0624 37.8172 64.4116 38.1093C63.4221 36.8439 61.8864 36.0249 60.1551 36.0232C59.2605 36.0232 58.4375 36.2606 57.7305 36.6163L57.6565 36.6573L55.4459 37.9685C54.4549 36.7835 52.9706 36.0241 51.3053 36.0232C50.4106 36.0232 49.5877 36.2606 48.8806 36.6163L48.7922 36.6662L40.3284 41.8501C38.417 41.2853 36.2948 40.6658 34.2442 40.0842C32.081 39.4704 30.0006 38.9 28.333 38.4793C27.498 38.2685 26.7676 38.0955 26.1706 37.9725C25.8714 37.9104 25.6059 37.8615 25.3702 37.8254C25.1313 37.7899 24.9317 37.765 24.7066 37.7642C24.5328 37.765 24.3823 37.7802 24.211 37.8012C23.5876 37.8833 22.701 38.0731 21.6552 38.3184C19.5185 38.8204 16.7915 39.5508 15.2847 39.961V37.4108C15.2847 35.641 13.8367 34.1929 12.0668 34.1929H3.21793C1.44802 34.1932 0 35.6412 0 37.4111V62.3494C0 64.1192 1.44802 65.5673 3.21793 65.5673H12.0669C13.8367 65.5673 15.2848 64.1193 15.2848 62.3494V60.4131C17.1947 60.829 21.4334 61.7444 25.9022 62.6623C28.9247 63.2826 32.0482 63.9036 34.6281 64.3717C35.9185 64.6059 37.0729 64.8014 38.0182 64.9397C38.9715 65.0774 39.6818 65.1626 40.2232 65.1659C40.6446 65.1643 41.0437 65.0846 41.4749 64.9655C42.277 64.7393 43.19 64.3557 44.2349 63.8481C47.8718 62.0751 53.0952 58.7533 58.0226 55.4664C62.9411 52.1833 67.5418 48.9415 69.7958 47.3889C71.2069 46.4163 72.0001 44.7728 72.0001 43.0336C71.9978 40.0464 69.5786 37.625 66.5909 37.6234ZM12.8713 62.3491C12.8713 62.7851 12.5029 63.1535 12.0669 63.1535H3.21793C2.78199 63.1535 2.41355 62.7851 2.41355 62.3491V37.4111C2.41355 36.9751 2.78199 36.6067 3.21793 36.6067H12.0669C12.5029 36.6067 12.8713 36.9751 12.8713 37.4111V62.3491ZM68.4274 45.4008C65.6553 47.3107 59.452 51.6909 53.4476 55.591C50.4478 57.5393 47.4979 59.3663 45.0788 60.6905C43.8706 61.3525 42.7926 61.8875 41.9309 62.2455C41.5006 62.4239 41.124 62.5584 40.8255 62.6412C40.5286 62.7256 40.3049 62.7539 40.2238 62.7522C39.9606 62.7546 39.2641 62.6854 38.3688 62.5518C35.1992 62.0876 29.2664 60.9025 24.1579 59.8367C21.6013 59.3033 19.2465 58.7998 17.5308 58.4296C16.534 58.2149 15.7649 58.0467 15.2854 57.9429V42.4637C15.5212 42.3985 15.83 42.3141 16.2009 42.2136C17.4728 41.8685 19.4139 41.3511 21.1548 40.9225C22.0245 40.7076 22.8458 40.5164 23.4982 40.3802C23.8232 40.3127 24.1073 40.2589 24.3252 40.2241C24.5391 40.1887 24.7056 40.1759 24.7073 40.1783C24.7114 40.1775 24.8377 40.1855 25.0098 40.2122C25.6759 40.3119 27.041 40.6313 28.7037 41.0665C33.7148 42.3754 41.6161 44.7413 44.8083 45.7106C45.9127 46.0436 46.9127 46.5457 47.5692 47.1547C47.8991 47.4589 48.1469 47.7839 48.3134 48.1353C48.4799 48.4884 48.5739 48.8706 48.5756 49.3379C48.5748 50.2848 48.1951 51.131 47.5749 51.753C46.9587 52.3669 46.122 52.7425 45.1881 52.7513L42.074 52.4464L31.4462 51.082C30.7848 50.9976 30.1799 51.464 30.0947 52.1253C30.0093 52.7866 30.4776 53.3906 31.138 53.476L41.8002 54.8442L45.1001 55.1675H45.1596C48.3782 55.1667 50.9871 52.5578 50.9888 49.3383C50.9903 48.5283 50.811 47.7664 50.4932 47.0996C50.0146 46.0948 49.2447 45.3169 48.3743 44.7247C47.5005 44.131 46.5143 43.708 45.5104 43.4023C44.9506 43.2325 44.2451 43.0185 43.439 42.7764L49.9881 38.7645C50.4128 38.5553 50.8473 38.4371 51.3074 38.4362C52.0877 38.4354 52.7924 38.7379 53.3251 39.2271L50.0896 41.1458C49.5168 41.4854 49.3278 42.2262 49.6681 42.799C50.0085 43.3718 50.7486 43.5616 51.322 43.2214L58.8326 38.7671C59.2596 38.5555 59.6966 38.4365 60.1584 38.4365C60.991 38.4357 61.74 38.7825 62.2829 39.3327L53.5377 44.5191C52.9641 44.8587 52.776 45.5995 53.1163 46.173C53.4566 46.7458 54.1967 46.9348 54.7702 46.5945L64.2267 40.9858C64.3183 40.9704 64.4109 40.9479 64.501 40.9093C64.6948 40.8271 64.8526 40.6969 64.9739 40.5424L65.2691 40.367C65.6962 40.1554 66.1331 40.0364 66.5948 40.0364C67.4242 40.0373 68.1659 40.3704 68.7122 40.9142C69.256 41.4605 69.589 42.2029 69.59 43.0331C69.5859 44.0445 69.1225 44.9278 68.4274 45.4008Z" fill="#04159A"/>
<path d="M43.6051 20.1713C42.5456 19.3942 41.318 18.9669 40.0993 18.6219C39.9337 18.5752 39.7711 18.5375 39.6054 18.4939V11.1277C40.7823 11.3039 41.6527 11.6707 42.2319 12.1236C42.6421 12.4422 42.9246 12.7994 43.1184 13.2008C43.3091 13.6022 43.4113 14.0551 43.412 14.5747C43.412 15.2408 43.9526 15.7814 44.6187 15.7814C45.2849 15.7814 45.8254 15.2408 45.8254 14.5747C45.8263 13.7323 45.6533 12.9078 45.2961 12.1605C44.762 11.0351 43.8111 10.1133 42.5746 9.51314C41.7195 9.09632 40.7219 8.83167 39.6062 8.7006V7.63944C39.6062 6.97246 39.0656 6.43274 38.3994 6.43274C37.7325 6.43274 37.1927 6.97246 37.1927 7.63944V8.63381C36.3183 8.70131 35.5331 8.87273 34.8381 9.13738C33.4721 9.6539 32.4722 10.5355 31.8535 11.5258C31.2325 12.5168 30.9734 13.5939 30.9726 14.5747C30.9694 15.6067 31.2179 16.536 31.6854 17.2929C32.0916 17.9559 32.6435 18.4707 33.2453 18.8657C34.303 19.5567 35.5114 19.9284 36.7156 20.2502C36.8741 20.2912 37.0333 20.3314 37.1919 20.3708V28.2948C36.018 28.1652 35.1178 27.7887 34.5138 27.2754C33.7729 26.6382 33.3933 25.8265 33.3852 24.7904C33.3852 24.1234 32.8446 23.5837 32.1785 23.5837C31.5123 23.5837 30.9718 24.1234 30.9718 24.7904C30.9629 26.4773 31.6821 28.0509 32.9547 29.1176C34.0464 30.041 35.5024 30.5946 37.1918 30.7314V31.7795C37.1918 32.4456 37.7315 32.9862 38.3985 32.9862C39.0646 32.9862 39.6052 32.4456 39.6052 31.7795V30.6878C40.9712 30.5501 42.247 30.2132 43.3379 29.5375C44.0828 29.0724 44.7288 28.4289 45.1649 27.6157C45.6042 26.8047 45.8263 25.8459 45.8245 24.7904C45.826 23.689 45.5896 22.7125 45.1407 21.8983C44.7499 21.1857 44.2077 20.6152 43.6051 20.1713ZM37.1911 17.8761C36.0166 17.5615 35.0039 17.1932 34.3852 16.7185C34.0522 16.4666 33.822 16.202 33.657 15.8794C33.4936 15.5544 33.3867 15.1512 33.385 14.5745C33.3842 13.8329 33.657 12.9447 34.323 12.2683C34.6585 11.9264 35.096 11.6215 35.6954 11.393C36.1081 11.2362 36.6068 11.1202 37.1909 11.06V17.8761H37.1911ZM43.0411 26.4687C42.8705 26.7825 42.651 27.0408 42.3645 27.2724C41.9365 27.6168 41.3429 27.8943 40.6028 28.0785C40.2938 28.1557 39.9567 28.2128 39.6052 28.2571V20.9936C40.3429 21.2067 41.0187 21.4418 41.5658 21.736C42.1764 22.0593 42.6164 22.4262 42.9156 22.8784C43.2116 23.3329 43.4071 23.9033 43.4112 24.7898C43.4095 25.5195 43.2647 26.0511 43.0411 26.4687Z" fill="#04159A"/>
</g>
<defs>
<clipPath id="clip0">
<rect width="72" height="72" fill="white"/>
</clipPath>
</defs>
</svg>
