<svg width="72" height="72" viewBox="0 0 72 72" fill="none" xmlns="http://www.w3.org/2000/svg">
<g clip-path="url(#clip0)">
<path d="M70.7907 32.1868L64.7083 26.6446V8.26732C64.7083 7.09803 63.7603 6.14993 62.5909 6.14993H47.9497C46.7804 6.14993 45.8323 7.09789 45.8323 8.26732V9.44492L38.4867 2.75159C37.0687 1.45938 34.9305 1.45953 33.5132 2.75145L1.20907 32.1869C0.0733848 33.2219 -0.301943 34.8166 0.252963 36.2494C0.80801 37.6823 2.15942 38.608 3.69603 38.608H8.85542V68.1C8.85542 69.2693 9.80337 70.2174 10.9728 70.2174H28.6793C29.8486 70.2174 30.7967 69.2695 30.7967 68.1V50.1934H41.2031V68.1002C41.2031 69.2695 42.1511 70.2176 43.3205 70.2176H61.0263C62.1956 70.2176 63.1437 69.2696 63.1436 68.1002V38.6081H68.3041C69.8405 38.6081 71.1921 37.6823 71.7471 36.2496C72.3019 34.8166 71.9267 33.2219 70.7907 32.1868ZM61.0263 34.3734C59.857 34.3734 58.9089 35.3213 58.9089 36.4908V65.9828H45.438V48.076C45.438 46.9067 44.4899 45.9586 43.3206 45.9586H28.6793C27.51 45.9586 26.5619 46.9066 26.5619 48.076V65.9828H13.0901V36.4908C13.0901 35.3215 12.1421 34.3734 10.9727 34.3734H5.09693L36.0001 6.21462L46.5239 15.804C47.1438 16.3687 48.0386 16.5143 48.8054 16.1758C49.5724 15.8369 50.0673 15.0772 50.0673 14.2388V10.3847H60.4738V27.5798C60.4738 28.1756 60.7247 28.7436 61.1651 29.1449L66.903 34.3734H61.0263Z" fill="#04159A"/>
</g>
<defs>
<clipPath id="clip0">
<rect width="72" height="72" fill="white"/>
</clipPath>
</defs>
</svg>
