<svg width="16" height="16" viewBox="0 0 16 16" fill="none" xmlns="http://www.w3.org/2000/svg">
<g clip-path="url(#clip0)">
<path d="M15 7.33372H1.66666V1.71371C1.66666 1.33371 2.02 1.00037 2.42331 1.00037H3.81666C4.21 1.00037 4.52666 1.32037 4.53 1.71037C3.88 1.87371 3.33334 2.47371 3.33334 3.10702V4.00037C3.33334 4.18371 3.48334 4.33371 3.66669 4.33371H6C6.18334 4.33371 6.33334 4.18371 6.33334 4.00037V3.10706C6.33334 2.46371 5.82334 1.87371 5.19669 1.71371C5.19669 0.95371 4.58003 0.33371 3.81669 0.33371H2.42334C1.65334 0.33371 1 0.967054 1 1.71371V7.33372C0.45 7.33037 0.00334375 7.77706 0 8.32706C0 8.61372 0.12 8.88372 0.333344 9.07372V10.8204C0.333344 12.177 0.936688 13.3404 1.91334 14.097L1.36669 15.1837C1.28334 15.347 1.35003 15.547 1.51669 15.6303C1.68003 15.7137 1.88003 15.647 1.96334 15.4803L2.47669 14.457C3.15003 14.817 3.90334 15.0037 4.66669 14.997H11.3333C12.0967 15.0037 12.85 14.817 13.5233 14.457L14.0367 15.4803C14.12 15.6437 14.32 15.7103 14.4833 15.6303C14.6467 15.5503 14.7133 15.347 14.6333 15.1837L14.0867 14.0937C15.0633 13.3403 15.6667 12.1737 15.6667 10.817V9.07038C15.8767 8.88703 16 8.61703 16 8.33372C16 7.7804 15.5533 7.33372 15 7.33372ZM4.86334 2.33371C5.26 2.33371 5.66669 2.72371 5.66669 3.10706V3.66706H4V3.10706C4 2.73706 4.45 2.33371 4.86334 2.33371ZM15 10.8204C15 12.8238 13.4233 14.3338 11.3333 14.3338H4.66666C2.57666 14.3337 1 12.8237 1 10.8204V9.33375H15V10.8204ZM15 8.66706H1.01C0.843344 8.66706 0.693344 8.54706 0.67 8.38372C0.64 8.17706 0.8 8.00037 1 8.00037H14.99C15.1567 8.00037 15.3067 8.12037 15.33 8.28372C15.36 8.49041 15.2 8.66706 15 8.66706Z" fill="#01062D"/>
</g>
<defs>
<clipPath id="clip0">
<rect width="16" height="16" fill="white"/>
</clipPath>
</defs>
</svg>
