<svg width="17" height="16" viewBox="0 0 17 16" fill="none" xmlns="http://www.w3.org/2000/svg">
<g clip-path="url(#clip0)">
<path d="M16.1948 8.8791C16.1948 8.34985 15.9067 7.87301 15.443 7.63463C14.9702 7.39151 14.358 7.26823 13.6234 7.26823H5.63786C5.58036 6.97973 5.45296 6.7176 5.26184 6.50401L4.1294 5.23829C3.84917 4.92507 3.44649 4.73488 2.99556 4.70282L2.79214 4.68835C2.68798 4.68082 2.58215 4.6956 2.48058 4.72985V4.06076C2.48058 3.82638 2.38239 3.61473 2.22543 3.46476C2.3846 3.27295 2.48058 3.02632 2.48058 2.75757C2.48058 2.14792 1.98726 1.65195 1.38093 1.65195C0.7746 1.65195 0.28125 2.14795 0.28125 2.7576C0.28125 3.02638 0.377228 3.27298 0.536395 3.46479C0.379435 3.61479 0.28125 3.82642 0.28125 4.06079V14.0355C0.28125 14.2081 0.4204 14.348 0.592061 14.348H1.66482C1.82514 14.348 1.95916 14.2254 1.97427 14.0649C2.01129 13.6714 2.21825 12.5906 2.73103 12.106H3.56329C3.73495 12.106 3.8741 11.966 3.8741 11.7935C3.8741 11.6209 3.73495 11.481 3.56329 11.481L0.902841 11.4809V8.72982L5.05142 8.72973V9.54407C5.05142 10.0259 5.44127 10.4179 5.92051 10.4179H5.92057H15.3257C15.4091 10.4179 15.4931 10.4057 15.5731 10.3818V11.481H13.8604C13.8601 11.481 13.8599 11.481 13.8596 11.481H6.29811C6.12645 11.481 5.9873 11.6209 5.9873 11.7935C5.9873 11.9661 6.12645 12.106 6.29811 12.106H13.745C14.2557 12.5893 14.464 13.6711 14.5018 14.0649C14.5169 14.2254 14.6509 14.348 14.8112 14.348H15.884C16.0556 14.348 16.1948 14.2081 16.1948 14.0355V8.8791ZM2.48132 5.75163C2.48596 5.61848 2.4678 5.48088 2.57693 5.38298C2.68671 5.28448 2.8184 5.31676 2.95167 5.32626C3.24533 5.34717 3.49277 5.46126 3.66722 5.65629L4.79966 6.92204C4.98323 7.12717 5.07128 7.4131 5.04756 7.72707C5.03846 7.84795 5.04063 7.9551 4.93931 8.04038C4.84672 8.11832 4.74623 8.10379 4.63478 8.10045C4.32173 8.09101 4.04825 7.97282 3.86468 7.76767L2.73224 6.50195C2.54908 6.29717 2.47188 6.02351 2.48132 5.75163ZM0.902872 8.10479V4.06079C0.902872 3.95185 0.991018 3.86323 1.09937 3.86323H1.6624C1.77075 3.86323 1.85889 3.95185 1.85889 4.06079V8.10476H0.902872V8.10479ZM2.48055 7.15507L3.33024 8.10479H2.48055V7.15507ZM1.3809 2.27698C1.64447 2.27698 1.85893 2.49257 1.85893 2.7576C1.85893 3.02263 1.6445 3.23823 1.3809 3.23823C1.1173 3.23823 0.902872 3.02263 0.902872 2.7576C0.902872 2.49257 1.1173 2.27698 1.3809 2.27698ZM1.39401 13.723H0.902872V12.106H1.94508C1.60872 12.6596 1.45661 13.3445 1.39401 13.723ZM5.92054 9.79291C5.78412 9.79291 5.67313 9.68132 5.67313 9.54417L5.67301 7.89323H13.6234C14.2586 7.89323 14.7756 7.99345 15.16 8.19107C15.4148 8.32207 15.5731 8.5857 15.5731 8.8791V9.54298C15.5731 9.54338 15.5731 9.54379 15.5731 9.5442C15.5731 9.68135 15.4621 9.79295 15.3257 9.79295H5.92054V9.79291ZM15.082 13.723C15.0194 13.3445 14.8673 12.6597 14.531 12.106H15.5731V13.723H15.082Z" fill="#01062D"/>
<path d="M5.21632 11.6741C5.15201 11.5165 4.96643 11.4402 4.8104 11.505C4.65381 11.5701 4.57745 11.7558 4.64225 11.9131C4.70702 12.0704 4.89174 12.1474 5.04817 12.0822C5.20429 12.0172 5.28131 11.8311 5.21632 11.6741Z" fill="#01062D"/>
</g>
<defs>
<clipPath id="clip0">
<rect width="15.9135" height="16" fill="white" transform="translate(0.28125)"/>
</clipPath>
</defs>
</svg>
