<svg width="17" height="16" viewBox="0 0 17 16" fill="none" xmlns="http://www.w3.org/2000/svg">
<g clip-path="url(#clip0)">
<path d="M16.4162 10.3949C16.4162 10.2897 16.3508 10.1958 16.2524 10.1599L12.6865 8.85618V4.68055H12.6769C12.7129 4.55477 12.6454 4.42249 12.5227 4.37867L8.79296 3.01523C8.7382 2.99492 8.67802 2.99492 8.62326 3.01523L4.89353 4.37867C4.81396 4.40808 4.75472 4.47611 4.73626 4.5593H4.72973V8.85618L1.1638 10.1599C1.08423 10.1893 1.02499 10.2574 1.00653 10.3406H1V14.7724H1.00622C0.978834 14.895 1.04631 15.019 1.1638 15.0618L4.89353 16.4253C4.94826 16.4457 5.0085 16.4457 5.06323 16.4253L8.70811 15.0927L12.353 16.4253C12.4077 16.4457 12.468 16.4457 12.5227 16.4253L16.2524 15.0618C16.3279 15.0342 16.3855 14.9716 16.4069 14.8937H16.4162V10.4618C16.4162 10.4618 16.416 10.4176 16.4162 10.3949ZM4.72973 15.8334L1.4973 14.6518V10.7518L4.72973 11.9337V15.8334ZM4.97838 11.4924L1.97626 10.3949L4.9588 9.3043L7.96123 10.4021L4.97838 11.4924ZM8.45946 14.6518L5.22703 15.8334V11.9337L8.45946 10.7518V14.6518ZM8.45946 10.0381L5.22703 8.85618V4.97055L8.45946 6.15243V10.0381ZM5.70599 4.61367L8.70811 3.51617L11.7102 4.61367L8.70811 5.71118L5.70599 4.61367ZM12.1892 4.97055V8.85618L8.95676 10.0381V6.15243L12.1892 4.97055ZM12.1892 15.8334L8.95676 14.6518V10.7518L12.1892 11.9337V15.8334ZM12.4378 11.4924L9.45499 10.4021L12.4574 9.3043L15.44 10.3949L12.4378 11.4924ZM15.9189 14.6518L12.6865 15.8334V11.9337L15.9189 10.7518V14.6518Z" fill="#01062D"/>
</g>
<defs>
<clipPath id="clip0">
<rect width="15.9135" height="16" fill="white" transform="translate(0.751953)"/>
</clipPath>
</defs>
</svg>
