<svg width="16" height="16" viewBox="0 0 16 16" fill="none" xmlns="http://www.w3.org/2000/svg">
<path d="M7.9569 0C4.87204 0 2.3623 2.52338 2.3623 5.625C2.3623 6.67294 2.65102 7.69563 3.19742 8.58288L7.63844 15.7784C7.72351 15.9163 7.87338 16 8.03457 16C8.03581 16 8.03703 16 8.03827 16C8.20086 15.9987 8.35104 15.9124 8.43455 15.7721L12.7624 8.50688C13.2786 7.63838 13.5515 6.64184 13.5515 5.625C13.5515 2.52338 11.0418 0 7.9569 0ZM11.9622 8.02556L8.02752 14.6308L3.98993 8.08894C3.53512 7.35044 3.28852 6.49844 3.28852 5.625C3.28852 3.04031 5.38618 0.93125 7.9569 0.93125C10.5276 0.93125 12.6222 3.04031 12.6222 5.625C12.6222 6.47253 12.3918 7.30275 11.9622 8.02556Z" fill="#01062D"/>
<path d="M7.95648 2.8125C6.41405 2.8125 5.15918 4.07419 5.15918 5.625C5.15918 7.16591 6.39363 8.4375 7.95648 8.4375C9.5386 8.4375 10.7538 7.14897 10.7538 5.625C10.7538 4.07419 9.49891 2.8125 7.95648 2.8125ZM7.95648 7.50625C6.92281 7.50625 6.0854 6.66147 6.0854 5.625C6.0854 4.59113 6.92819 3.74375 7.95648 3.74375C8.98476 3.74375 9.82445 4.59113 9.82445 5.625C9.82445 6.64634 9.00652 7.50625 7.95648 7.50625Z" fill="#01062D"/>
</svg>
