<svg width="102" height="28" viewBox="0 0 102 28" fill="none" xmlns="http://www.w3.org/2000/svg">
<g clip-path="url(#clip0)">
<path d="M23.5969 12.729L12.8289 2.91728C12.3563 2.48654 11.6435 2.48659 11.1711 2.91723L0.403033 12.7291C0.0244239 13.0741 -0.100638 13.6056 0.08433 14.0833C0.269345 14.5609 0.719813 14.8694 1.23202 14.8694H2.95186V24.7001C2.95186 25.0899 3.26789 25.4059 3.65765 25.4059H9.55986C9.94963 25.4059 10.2657 25.0899 10.2657 24.7001V18.7312H13.7345V24.7001C13.7345 25.0899 14.0505 25.4059 14.4403 25.4059H20.3422C20.732 25.4059 21.048 25.09 21.048 24.7001V14.8694H22.7682C23.2803 14.8694 23.7308 14.5608 23.9159 14.0833C24.1006 13.6056 23.9755 13.0741 23.5969 12.729Z" fill="white"/>
<path d="M20.8637 4.00317H16.1238L21.5695 8.95485V4.70892C21.5695 4.31916 21.2535 4.00317 20.8637 4.00317Z" fill="white"/>
</g>
<path d="M47.2812 22H44.3281V14.418H36.6992V22H33.7344V4.9375H36.6992V12.0391H44.3281V4.9375H47.2812V22ZM49.9883 15.543C49.9883 14.3008 50.2344 13.1836 50.7266 12.1914C51.2188 11.1914 51.9102 10.4258 52.8008 9.89453C53.6914 9.35547 54.7148 9.08594 55.8711 9.08594C57.582 9.08594 58.9688 9.63672 60.0312 10.7383C61.1016 11.8398 61.6797 13.3008 61.7656 15.1211L61.7773 15.7891C61.7773 17.0391 61.5352 18.1562 61.0508 19.1406C60.5742 20.125 59.8867 20.8867 58.9883 21.4258C58.0977 21.9648 57.0664 22.2344 55.8945 22.2344C54.1055 22.2344 52.6719 21.6406 51.5938 20.4531C50.5234 19.2578 49.9883 17.668 49.9883 15.6836V15.543ZM52.8359 15.7891C52.8359 17.0938 53.1055 18.1172 53.6445 18.8594C54.1836 19.5938 54.9336 19.9609 55.8945 19.9609C56.8555 19.9609 57.6016 19.5859 58.1328 18.8359C58.6719 18.0859 58.9414 16.9883 58.9414 15.543C58.9414 14.2617 58.6641 13.2461 58.1094 12.4961C57.5625 11.7461 56.8164 11.3711 55.8711 11.3711C54.9414 11.3711 54.2031 11.7422 53.6562 12.4844C53.1094 13.2188 52.8359 14.3203 52.8359 15.7891ZM71.8672 20.7578C71.0312 21.7422 69.8438 22.2344 68.3047 22.2344C66.9297 22.2344 65.8867 21.832 65.1758 21.0273C64.4727 20.2227 64.1211 19.0586 64.1211 17.5352V9.32031H66.9688V17.5C66.9688 19.1094 67.6367 19.9141 68.9727 19.9141C70.3555 19.9141 71.2891 19.418 71.7734 18.4258V9.32031H74.6211V22H71.9375L71.8672 20.7578ZM84.6289 18.5547C84.6289 18.0469 84.418 17.6602 83.9961 17.3945C83.582 17.1289 82.8906 16.8945 81.9219 16.6914C80.9531 16.4883 80.1445 16.2305 79.4961 15.918C78.0742 15.2305 77.3633 14.2344 77.3633 12.9297C77.3633 11.8359 77.8242 10.9219 78.7461 10.1875C79.668 9.45312 80.8398 9.08594 82.2617 9.08594C83.7773 9.08594 85 9.46094 85.9297 10.2109C86.8672 10.9609 87.3359 11.9336 87.3359 13.1289H84.4883C84.4883 12.582 84.2852 12.1289 83.8789 11.7695C83.4727 11.4023 82.9336 11.2188 82.2617 11.2188C81.6367 11.2188 81.125 11.3633 80.7266 11.6523C80.3359 11.9414 80.1406 12.3281 80.1406 12.8125C80.1406 13.25 80.3242 13.5898 80.6914 13.832C81.0586 14.0742 81.8008 14.3203 82.918 14.5703C84.0352 14.8125 84.9102 15.1055 85.543 15.4492C86.1836 15.7852 86.6562 16.1914 86.9609 16.668C87.2734 17.1445 87.4297 17.7227 87.4297 18.4023C87.4297 19.543 86.957 20.4688 86.0117 21.1797C85.0664 21.8828 83.8281 22.2344 82.2969 22.2344C81.2578 22.2344 80.332 22.0469 79.5195 21.6719C78.707 21.2969 78.0742 20.7812 77.6211 20.125C77.168 19.4688 76.9414 18.7617 76.9414 18.0039H79.707C79.7461 18.6758 80 19.1953 80.4688 19.5625C80.9375 19.9219 81.5586 20.1016 82.332 20.1016C83.082 20.1016 83.6523 19.9609 84.043 19.6797C84.4336 19.3906 84.6289 19.0156 84.6289 18.5547ZM95.5039 22.2344C93.6992 22.2344 92.2344 21.668 91.1094 20.5352C89.9922 19.3945 89.4336 17.8789 89.4336 15.9883V15.6367C89.4336 14.3711 89.6758 13.2422 90.1602 12.25C90.6523 11.25 91.3398 10.4727 92.2227 9.91797C93.1055 9.36328 94.0898 9.08594 95.1758 9.08594C96.9023 9.08594 98.2344 9.63672 99.1719 10.7383C100.117 11.8398 100.59 13.3984 100.59 15.4141V16.5625H92.3047C92.3906 17.6094 92.7383 18.4375 93.3477 19.0469C93.9648 19.6562 94.7383 19.9609 95.668 19.9609C96.9727 19.9609 98.0352 19.4336 98.8555 18.3789L100.391 19.8438C99.8828 20.6016 99.2031 21.1914 98.3516 21.6133C97.5078 22.0273 96.5586 22.2344 95.5039 22.2344ZM95.1641 11.3711C94.3828 11.3711 93.75 11.6445 93.2656 12.1914C92.7891 12.7383 92.4844 13.5 92.3516 14.4766H97.7773V14.2656C97.7148 13.3125 97.4609 12.5938 97.0156 12.1094C96.5703 11.6172 95.9531 11.3711 95.1641 11.3711Z" fill="white"/>
<defs>
<clipPath id="clip0">
<rect width="24" height="24" fill="white" transform="translate(0 2)"/>
</clipPath>
</defs>
</svg>
